<svg xmlns="http://www.w3.org/2000/svg" xmlns:xlink="http://www.w3.org/1999/xlink" viewBox="155.52 334.08 660.4799999999999 316.8" id="svg1" version="1.1" style="max-height: 500px" width="660.4799999999999" height="316.8">
  <defs id="defs1">
    
    <clipPath id="clipPath3" clipPathUnits="userSpaceOnUse">
      <path style="visibility: visible;" data-index="0" id="path3" transform="translate(-176.84091,-409.70091)" d="M 0,720 H 720 V 0 H 0 Z"/>
    </clipPath>
    <clipPath id="clipPath5" clipPathUnits="userSpaceOnUse">
      <path style="visibility: visible;" data-index="1" id="path5" transform="translate(-319.47131,-405.15131)" d="M 0,720 H 720 V 0 H 0 Z"/>
    </clipPath>
    <clipPath id="clipPath7" clipPathUnits="userSpaceOnUse">
      <path style="visibility: visible;" data-index="2" id="path7" transform="translate(-431.13501,-360.52711)" d="M 0,720 H 720 V 0 H 0 Z"/>
    </clipPath>
    <clipPath id="clipPath9" clipPathUnits="userSpaceOnUse">
      <path style="visibility: visible;" data-index="3" id="path9" transform="translate(-482.22221,-401.11541)" d="M 0,720 H 720 V 0 H 0 Z"/>
    </clipPath>
    <clipPath id="clipPath11" clipPathUnits="userSpaceOnUse">
      <path style="visibility: visible;" data-index="4" id="path11" transform="translate(-602.48072,-360.52711)" d="M 0,720 H 720 V 0 H 0 Z"/>
    </clipPath>
    <clipPath id="clipPath13" clipPathUnits="userSpaceOnUse">
      <path style="visibility: visible;" data-index="5" id="path13" transform="translate(-232.43121,-299.9755)" d="M 0,720 H 720 V 0 H 0 Z"/>
    </clipPath>
    <clipPath id="clipPath15" clipPathUnits="userSpaceOnUse">
      <path style="visibility: visible;" data-index="6" id="path15" transform="translate(-258.07311,-275.49841)" d="M 0,720 H 720 V 0 H 0 Z"/>
    </clipPath>
    <clipPath id="clipPath17" clipPathUnits="userSpaceOnUse">
      <path style="visibility: visible;" data-index="7" id="path17" transform="translate(-281.1751,-278.26981)" d="M 0,720 H 720 V 0 H 0 Z"/>
    </clipPath>
    <clipPath id="clipPath19" clipPathUnits="userSpaceOnUse">
      <path style="visibility: visible;" data-index="8" id="path19" transform="translate(-300.75341,-251.8057)" d="M 0,720 H 720 V 0 H 0 Z"/>
    </clipPath>
    <clipPath id="clipPath21" clipPathUnits="userSpaceOnUse">
      <path style="visibility: visible;" data-index="9" id="path21" transform="translate(-332.08161,-266.78521)" d="M 0,720 H 720 V 0 H 0 Z"/>
    </clipPath>
    <clipPath id="clipPath23" clipPathUnits="userSpaceOnUse">
      <path style="visibility: visible;" data-index="10" id="path23" transform="translate(-387.58661,-254.52681)" d="M 0,720 H 720 V 0 H 0 Z"/>
    </clipPath>
    <clipPath id="clipPath25" clipPathUnits="userSpaceOnUse">
      <path style="visibility: visible;" data-index="11" id="path25" transform="translate(-418.17451,-255.91501)" d="M 0,720 H 720 V 0 H 0 Z"/>
    </clipPath>
    <clipPath id="clipPath27" clipPathUnits="userSpaceOnUse">
      <path style="visibility: visible;" data-index="12" id="path27" transform="translate(-436.52951,-253.3477)" d="M 0,720 H 720 V 0 H 0 Z"/>
    </clipPath>
    <clipPath id="clipPath29" clipPathUnits="userSpaceOnUse">
      <path style="visibility: visible;" data-index="13" id="path29" transform="translate(-463.69381,-280.62301)" d="M 0,720 H 720 V 0 H 0 Z"/>
    </clipPath>
    <clipPath id="clipPath31" clipPathUnits="userSpaceOnUse">
      <path style="visibility: visible;" data-index="14" id="path31" transform="translate(-498.61201,-284.3377)" d="M 0,720 H 720 V 0 H 0 Z"/>
    </clipPath>
  </defs>
  
    
  
  <g id="layer-MC0">
    
    <path data-index="16" clip-path="url(#clipPath3)" transform="matrix(1.3333333,0,0,-1.3333333,235.78787,413.73213)" style="fill: rgb(221, 141, 39); fill-opacity: 1; fill-rule: nonzero; visibility: visible; opacity: 1;" d="m 0,0 c 2.363,26.788 -3.936,38.695 -10.82,43.907 -5.87,4.443 -14.32,-0.067 -14.32,-7.431 l -0.495,-95.125 C -24.259,-57.264 -2.414,-27.386 0,0 m -0.01,-28.497 c 0,0 12.423,-40.905 28.849,-62.4 H 1.633 c 0,0 -7.006,14.89 -8.955,20.015 -1.867,4.915 -6.328,20.048 -6.33,20.06 -1.268,-1.228 -2.387,-2.385 -3.26,-3.457 -11.358,-13.937 -3.756,-34.204 -2.234,-36.618 h -31.595 c 2.013,3.195 4.512,16.542 5.456,31.833 0.217,3.403 0.363,6.97 0.432,10.583 V 9.298 c -0.069,3.626 -0.217,7.191 -0.432,10.608 -0.944,15.287 -3.346,27.651 -5.361,30.847 l 31.49,0.102 c 57.222,0 55.052,-47.886 19.144,-79.351 z" id="path2"/>
    <path data-index="17" clip-path="url(#clipPath5)" transform="matrix(1.3333333,0,0,-1.3333333,425.96173,419.79827)" style="fill: rgb(221, 141, 39); fill-opacity: 1; fill-rule: nonzero; visibility: visible; opacity: 1;" d="M 0,0 C -15.522,35.185 -41.44,52.843 -65.309,45.986 -89.158,39.119 -100.257,2.471 -84.735,-32.715 -69.213,-67.899 -42.529,-83.789 -18.66,-76.919 5.189,-70.053 15.542,-35.195 0,0 m 28.528,-18.414 c -1.627,-39.109 -34.662,-69.496 -73.789,-67.87 -39.127,1.628 -69.527,34.65 -67.901,73.761 1.626,39.111 34.662,69.496 73.789,67.87 39.127,-1.627 69.527,-34.65 67.901,-73.761" id="path4"/>
    <path data-index="18" clip-path="url(#clipPath7)" transform="matrix(1.3333333,0,0,-1.3333333,574.84667,479.2972)" style="fill: rgb(221, 141, 39); fill-opacity: 1; fill-rule: nonzero; visibility: visible; opacity: 1;" d="m 0,0 c 2.675,-10.413 1.532,-20.724 -4.566,-29.609 -15.899,-23.167 -57.471,-10.271 -70.843,0.482 l 0.243,30.985 c 26.551,-39.424 53.203,-46.549 58.385,-30.077 1.577,5.012 1.62,15.133 -6.094,26.435 -11.991,17.563 -35.843,24.105 -47.911,43.103 -7.227,11.382 -9.548,24.875 -3.81,39.645 5.715,14.709 17.921,17.723 18.995,17.988 8.168,1.241 27.605,3.693 42.748,-6.501 2.32,-1.562 4.372,-3.249 6.189,-4.983 L -6.907,56.484 c -4.775,10.685 -24.682,38.217 -44.517,38.217 -17.848,0 -14.221,-24.638 -0.823,-39.676 C -34.868,35.515 -6.97,27.124 0,0.002 Z" id="path6"/>
    <path data-index="19" clip-path="url(#clipPath9)" transform="matrix(1.3333333,0,0,-1.3333333,642.96293,425.17947)" style="fill: rgb(221, 141, 39); fill-opacity: 1; fill-rule: nonzero; visibility: visible; opacity: 1;" d="m 0,0 c -4.741,21.893 -9.442,40.779 -11.658,46.165 0,0 -13.932,-54.602 -19.16,-80.499 z m 4.539,-82.24 c 1.746,2.451 3.91,10.929 5.165,21.487 0.866,7.276 -3.264,29.959 -8.154,53.141 l -32.876,-30.423 c -2.313,-13.418 -1.176,-21.879 2.888,-36.156 0.701,-2.463 1.46,-5.271 2.105,-8.048 h -22.429 l 18.444,70.361 15.192,59.833 c -2.353,4.982 -5.557,10.401 -6.176,11.456 H 4.779 C 6.568,52.216 8.355,45.02 10.143,37.826 20.067,-2.107 30.054,-42.306 39.975,-82.239 H 4.539 Z" id="path8"/>
    <path data-index="20" clip-path="url(#clipPath11)" transform="matrix(1.3333333,0,0,-1.3333333,803.3076,479.2972)" style="fill: rgb(221, 141, 39); fill-opacity: 1; fill-rule: nonzero; visibility: visible; opacity: 1;" d="m 0,0 c 2.675,-10.413 1.532,-20.724 -4.566,-29.609 -15.899,-23.167 -57.471,-10.271 -70.843,0.482 l 0.243,30.985 c 26.551,-39.424 53.203,-46.549 58.385,-30.077 1.577,5.012 1.62,15.133 -6.094,26.435 -11.991,17.563 -35.843,24.105 -47.911,43.103 -7.227,11.382 -9.548,24.875 -3.81,39.645 5.715,14.709 17.921,17.723 18.995,17.988 8.168,1.241 27.605,3.693 42.748,-6.501 2.319,-1.562 4.372,-3.249 6.189,-4.983 L -6.907,56.484 c -4.775,10.685 -24.682,38.217 -44.517,38.217 -17.848,0 -14.221,-24.638 -0.823,-39.676 C -34.868,35.515 -6.97,27.124 0,0.002 Z" id="path10"/>
    <path data-index="21" clip-path="url(#clipPath13)" transform="matrix(1.3333333,0,0,-1.3333333,309.90827,560.03267)" style="fill: rgb(221, 141, 39); fill-opacity: 1; fill-rule: nonzero; visibility: visible; opacity: 1;" d="m 0,0 c 5.068,-2.891 7.632,-4.262 12.811,-6.856 -0.45,-0.898 -0.675,-1.347 -1.124,-2.245 -4.076,2.041 -6.098,3.108 -10.106,5.331 -1.33,-2.399 -1.996,-3.599 -3.326,-5.997 3.383,-1.877 5.087,-2.784 8.518,-4.535 -0.456,-0.894 -0.684,-1.341 -1.141,-2.236 -3.461,1.766 -5.181,2.681 -8.595,4.575 -2.058,-3.71 -3.086,-5.565 -5.144,-9.275 -1.216,0.675 -1.823,1.016 -3.034,1.707 C -6.684,-11.719 -4.456,-7.813 0,0" id="path12"/>
    <path data-index="22" clip-path="url(#clipPath15)" transform="matrix(1.3333333,0,0,-1.3333333,344.09747,592.6688)" style="fill: rgb(221, 141, 39); fill-opacity: 1; fill-rule: nonzero; visibility: visible; opacity: 1;" d="M 0,0 C 3.42,-1.426 5.203,0.068 5.963,1.984 6.723,3.9 6.462,6.157 3.142,7.541 1.402,8.267 0.533,8.638 -1.198,9.395 -2.507,6.401 -3.162,4.904 -4.471,1.91 -2.688,1.13 -1.793,0.748 0,0 m -3.093,12.985 c 2.867,-1.294 4.307,-1.92 7.201,-3.126 5.006,-2.087 6.135,-5.642 4.834,-9.037 -1.046,-2.729 -3.39,-4.5 -7.017,-3.962 1.353,-4.703 2.083,-7.055 3.651,-11.753 -1.49,0.556 -2.233,0.84 -3.717,1.417 -1.397,4.533 -2.046,6.801 -3.247,11.335 -1.639,0.686 -2.457,1.036 -4.089,1.75 -1.489,-3.406 -2.234,-5.109 -3.724,-8.515 -1.26,0.551 -1.889,0.831 -3.144,1.397 3.701,8.198 5.552,12.297 9.252,20.494" id="path14"/>
    <path data-index="23" clip-path="url(#clipPath17)" transform="matrix(1.3333333,0,0,-1.3333333,374.90013,588.9736)" style="fill: rgb(221, 141, 39); fill-opacity: 1; fill-rule: nonzero; visibility: visible; opacity: 1;" d="M 0,0 C 5.421,-1.793 8.151,-2.615 13.639,-4.111 13.375,-5.08 13.243,-5.565 12.979,-6.534 8.66,-5.356 6.51,-4.722 2.231,-3.363 1.401,-5.977 0.985,-7.284 0.155,-9.899 c 3.611,-1.147 5.425,-1.689 9.065,-2.711 -0.271,-0.967 -0.407,-1.45 -0.678,-2.417 -3.673,1.03 -5.503,1.577 -9.147,2.735 -0.981,-3.086 -1.471,-4.629 -2.451,-7.715 4.554,-1.447 6.843,-2.122 11.44,-3.375 -0.264,-0.969 -0.396,-1.454 -0.66,-2.423 -5.948,1.622 -8.907,2.513 -14.782,4.456 C -4.235,-12.81 -2.823,-8.54 0,0" id="path16"/>
    <path data-index="24" clip-path="url(#clipPath19)" transform="matrix(1.3333333,0,0,-1.3333333,401.00453,624.25907)" style="fill: rgb(221, 141, 39); fill-opacity: 1; fill-rule: nonzero; visibility: visible; opacity: 1;" d="M 0,0 C 0.544,1.013 0.814,1.521 1.352,2.536 2.49,0.779 4.611,-1.35 8.155,-2.056 c 2.925,-0.584 5.465,0.488 5.898,2.885 0.406,2.25 -0.601,3.697 -4.852,5.696 -4.286,2.016 -5.904,4.754 -5.206,7.824 0.706,3.106 3.954,5.067 8.655,4.137 2.637,-0.522 4.786,-1.971 5.888,-3.189 -0.44,-0.883 -0.661,-1.323 -1.105,-2.204 -1.37,1.345 -3.366,2.629 -5.256,3.003 C 9.285,16.668 7.356,15.754 6.913,13.702 6.573,12.127 7.337,10.553 10.876,8.904 15.731,6.642 17.775,4.211 17.155,0.553 16.423,-3.77 11.958,-5.299 7.678,-4.445 3.606,-3.633 1.067,-1.553 0,0" id="path18"/>
    <path data-index="25" clip-path="url(#clipPath21)" transform="matrix(1.3333333,0,0,-1.3333333,442.77547,604.2864)" style="fill: rgb(221, 141, 39); fill-opacity: 1; fill-rule: nonzero; visibility: visible; opacity: 1;" d="M 0,0 C 1.236,-0.155 1.854,-0.228 3.092,-0.369 2.669,-4.092 2.458,-5.954 2.035,-9.678 c 5.298,-0.601 7.954,-0.837 13.27,-1.183 0.243,3.739 0.365,5.609 0.609,9.349 1.241,-0.081 1.862,-0.118 3.104,-0.184 -0.481,-8.982 -0.721,-13.472 -1.202,-22.454 -1.346,0.072 -2.019,0.112 -3.365,0.2 0.276,4.233 0.414,6.35 0.69,10.583 -5.364,0.349 -8.043,0.588 -13.389,1.194 -0.479,-4.215 -0.718,-6.322 -1.196,-10.538 -1.341,0.152 -2.012,0.232 -3.351,0.4 C -1.677,-13.387 -1.118,-8.924 0,0" id="path20"/>
    <path data-index="26" clip-path="url(#clipPath23)" transform="matrix(1.3333333,0,0,-1.3333333,516.78213,620.63093)" style="fill: rgb(221, 141, 39); fill-opacity: 1; fill-rule: nonzero; visibility: visible; opacity: 1;" d="M 0,0 C 3.633,0.288 4.507,2.615 4.309,4.667 4.111,6.719 2.845,8.797 -0.677,8.518 -2.523,8.371 -3.447,8.306 -5.296,8.191 -5.084,4.78 -4.977,3.074 -4.765,-0.337 -2.858,-0.219 -1.905,-0.151 0,0 m -8.557,10.522 c 3.075,0.155 4.611,0.255 7.682,0.498 5.31,0.422 7.928,-2.419 8.319,-6.033 0.391,-3.614 -1.666,-7.047 -7.245,-7.49 -1.922,-0.153 -2.884,-0.221 -4.808,-0.34 0.222,-3.561 0.332,-5.341 0.554,-8.902 -1.346,-0.084 -2.019,-0.122 -3.365,-0.19 -0.454,8.983 -0.682,13.474 -1.137,22.457" id="path22"/>
    <path data-index="27" clip-path="url(#clipPath25)" transform="matrix(1.3333333,0,0,-1.3333333,557.566,618.78)" style="fill: rgb(221, 141, 39); fill-opacity: 1; fill-rule: nonzero; visibility: visible; opacity: 1;" d="M 0,0 C -2.384,3.316 -3.549,4.986 -5.826,8.348 -6.83,4.414 -7.361,2.449 -8.479,-1.478 -5.081,-0.939 -3.385,-0.643 0,0 m -7.52,12.619 c 0.799,0.136 1.198,0.206 1.997,0.348 C 0.02,4.82 2.954,0.811 9.134,-7.05 7.778,-7.345 7.098,-7.488 5.739,-7.767 c -1.7,2.223 -2.537,3.34 -4.187,5.585 -4.289,-0.833 -6.44,-1.207 -10.751,-1.874 -0.791,-2.67 -1.2,-4.005 -2.044,-6.67 -1.304,-0.188 -1.956,-0.278 -3.261,-0.451 3.136,9.488 4.532,14.253 6.984,23.796" id="path24"/>
    <path data-index="28" clip-path="url(#clipPath27)" transform="matrix(1.3333333,0,0,-1.3333333,582.03933,622.20307)" style="fill: rgb(221, 141, 39); fill-opacity: 1; fill-rule: nonzero; visibility: visible; opacity: 1;" d="m 0,0 c 0.021,1.15 0.029,1.724 0.044,2.874 1.817,-1.043 4.682,-1.966 8.172,-0.97 2.882,0.822 4.666,2.94 3.955,5.27 -0.668,2.187 -2.236,3.01 -6.95,2.84 -4.753,-0.172 -7.443,1.525 -8.226,4.574 -0.792,3.085 1.202,6.314 5.83,7.641 2.596,0.745 5.185,0.443 6.731,-0.134 0.011,-0.986 0.015,-1.479 0.02,-2.466 -1.844,0.566 -4.219,0.792 -6.08,0.259 C 0.649,19.071 -0.652,17.375 -0.108,15.348 0.31,13.792 1.709,12.74 5.629,12.897 11.004,13.111 13.956,11.89 15.078,8.354 16.404,4.175 13.1,0.764 8.885,-0.438 4.873,-1.583 1.66,-0.893 0,0" id="path26"/>
    <path data-index="29" clip-path="url(#clipPath29)" transform="matrix(1.3333333,0,0,-1.3333333,618.2584,585.836)" style="fill: rgb(221, 141, 39); fill-opacity: 1; fill-rule: nonzero; visibility: visible; opacity: 1;" d="m 0,0 c -3.166,-1.232 -4.756,-1.822 -7.95,-2.951 -0.334,0.947 -0.502,1.421 -0.836,2.368 7.517,2.656 11.24,4.129 18.59,7.361 0.404,-0.92 0.606,-1.379 1.01,-2.299 C 7.691,3.106 6.122,2.445 2.967,1.175 5.951,-6.237 7.443,-9.943 10.427,-17.355 9.155,-17.867 8.518,-18.119 7.241,-18.616 4.345,-11.17 2.896,-7.446 0,0" id="path28"/>
    <path data-index="30" clip-path="url(#clipPath31)" transform="matrix(1.3333333,0,0,-1.3333333,664.816,580.88307)" style="fill: rgb(221, 141, 39); fill-opacity: 1; fill-rule: nonzero; visibility: visible; opacity: 1;" d="M 0,0 C -3.305,2.431 -4.935,3.666 -8.147,6.176 -7.968,2.103 -7.906,0.06 -7.84,-4.04 -4.685,-2.476 -3.117,-1.668 0,0 m -11.059,9.736 c 0.739,0.378 1.109,0.569 1.846,0.953 C -1.402,4.615 2.645,1.693 11.005,-3.894 9.764,-4.601 9.142,-4.951 7.895,-5.642 c -2.316,1.596 -3.463,2.403 -5.736,4.037 -3.946,-2.132 -5.934,-3.156 -9.941,-5.122 0.017,-2.797 0.012,-4.199 -0.024,-7.007 -1.215,-0.58 -1.823,-0.866 -3.043,-1.431 0.254,10.03 0.21,15.017 -0.21,24.901" id="path30"/>
  </g>
</svg>